<svg width="1280" height="720" xmlns="http://www.w3.org/2000/svg" xmlns:xlink="http://www.w3.org/1999/xlink" overflow="hidden"><defs><clipPath id="clip0"><path d="M0 0 1280 0 1280 720 0 720Z" fill-rule="evenodd" clip-rule="evenodd"/></clipPath><linearGradient x1="348" y1="203.5" x2="348" y2="285.5" gradientUnits="userSpaceOnUse" spreadMethod="reflect" id="fill1"><stop offset="0" stop-color="#F7BDA4"/><stop offset="0.5" stop-color="#F5B195"/><stop offset="1" stop-color="#F8A581"/></linearGradient><linearGradient x1="563.5" y1="609.5" x2="563.5" y2="691.5" gradientUnits="userSpaceOnUse" spreadMethod="reflect" id="fill2"><stop offset="0" stop-color="#F7BDA4"/><stop offset="0.5" stop-color="#F5B195"/><stop offset="1" stop-color="#F8A581"/></linearGradient><linearGradient x1="256.5" y1="609.5" x2="256.5" y2="691.5" gradientUnits="userSpaceOnUse" spreadMethod="reflect" id="fill3"><stop offset="0" stop-color="#F7BDA4"/><stop offset="0.5" stop-color="#F5B195"/><stop offset="1" stop-color="#F8A581"/></linearGradient></defs><g clip-path="url(#clip0)"><rect x="0" y="0" width="1280" height="720" fill="#FFFFFF"/><rect x="387.5" y="64.5001" width="176" height="82" stroke="#2F528F" stroke-width="1.33333" stroke-miterlimit="8" fill="#FFC5C5"/><text font-family="Calibri,Calibri_MSFontService,sans-serif" font-weight="400" font-size="24" transform="translate(458.829 98)">STL <tspan x="-50.4533" y="29">Specifications</tspan></text><rect x="260.5" y="203.5" width="175" height="82" stroke="#ED7D31" stroke-width="0.666667" stroke-miterlimit="8" fill="url(#fill1)"/><text font-family="Calibri,Calibri_MSFontService,sans-serif" font-weight="400" font-size="24" transform="translate(289.897 238)">State<tspan x="49.7267" y="0">-</tspan><tspan x="57.06" y="0">based </tspan><tspan x="16.18" y="29">Rewards</tspan></text><rect x="260.5" y="319.5" width="175" height="82" stroke="#787878" stroke-width="1.33333" stroke-miterlimit="8" fill="#A5A5A5"/><text fill="#FFFFFF" font-family="Calibri,Calibri_MSFontService,sans-serif" font-weight="400" font-size="24" transform="translate(285.294 353)">Off<tspan x="30.2667" y="0">-</tspan><tspan x="37.6" y="0">the</tspan><tspan x="70.2667" y="0">-</tspan><tspan x="77.6" y="0">shelf </tspan><tspan x="22.1333" y="29">Deep RL</tspan></text><rect x="475.5" y="609.5" width="176" height="82" stroke="#ED7D31" stroke-width="0.666667" stroke-miterlimit="8" fill="url(#fill2)"/><text font-family="Calibri,Calibri_MSFontService,sans-serif" font-weight="400" font-size="24" transform="translate(516.368 643)">Statistical <tspan x="-9.10001" y="29">Verification</tspan></text><rect x="30.5001" y="64.5001" width="175" height="82" stroke="#2F528F" stroke-width="1.33333" stroke-miterlimit="8" fill="#FFC5C5"/><text font-family="Calibri,Calibri_MSFontService,sans-serif" font-weight="400" font-size="24" transform="translate(45.3906 98)">Control Barrier <tspan x="22.04" y="29">Certificate</tspan></text><rect x="168.5" y="609.5" width="176" height="82" stroke="#ED7D31" stroke-width="0.666667" stroke-miterlimit="8" fill="url(#fill3)"/><text font-family="Calibri,Calibri_MSFontService,sans-serif" font-weight="400" font-size="24" transform="translate(201.869 643)">SMT<tspan x="43.1667" y="0">-</tspan><tspan x="50.5" y="0">based </tspan><tspan x="-0.339996" y="29">verification</tspan></text><path d="M476.109 146.5 476.109 245.756 447.5 245.756 447.5 244.423 475.443 244.423 474.776 245.09 474.776 146.5ZM448.833 251.756 435.5 245.09 448.833 238.423Z"/><path d="M349.167 285.5 349.167 306.997 347.833 306.997 347.833 285.5ZM355.167 305.663 348.5 318.997 341.833 305.663Z"/><rect x="260.5" y="447.5" width="175" height="82" stroke="#A5A5A5" stroke-width="0.666667" stroke-miterlimit="8" fill="#C00000"/><text fill="#FFFFFF" font-family="Calibri,Calibri_MSFontService,sans-serif" font-weight="400" font-size="24" transform="translate(270.181 482)">Neural Network <tspan x="28.38" y="29">Controller</tspan></text><path d="M349.167 401.5 349.167 435.687 347.833 435.687 347.833 401.5ZM355.167 434.354 348.5 447.687 341.833 434.354Z"/><path d="M0-0.666667 40.3737-0.666667 40.3737 215.367 39.707 214.7 67.4138 214.7 67.4138 216.034 39.0403 216.034 39.0403 0 39.707 0.666667 0 0.666667ZM66.0804 208.7 79.4137 215.367 66.0804 222.034Z" transform="matrix(-4.37114e-08 1 1 4.37114e-08 348.5 529.5)"/><path d="M348.475 529.5 348.475 569.874 256.5 569.874 257.167 569.207 257.167 596.914 255.833 596.914 255.833 568.54 347.809 568.54 347.142 569.207 347.142 529.5ZM263.167 595.581 256.5 608.914 249.833 595.581Z"/><path d="M169.431 650.847 118.833 650.847 118.833 421.5 120.167 421.5 120.167 650.18 119.5 649.513 169.431 649.513ZM112.833 422.833 119.5 409.5 126.167 422.833Z"/><rect x="52.5001" y="338.5" width="133" height="71" stroke="#787878" stroke-width="1.33333" stroke-miterlimit="8" fill="#A5A5A5"/><text fill="#FFFFFF" font-family="Calibri,Calibri_MSFontService,sans-serif" font-weight="400" font-size="24" transform="translate(75.5525 367)">Counter-<tspan x="-2.84666" y="29">examples</tspan></text><rect x="44.5001" y="203.5" width="147" height="82" stroke="#787878" stroke-width="1.33333" stroke-miterlimit="8" fill="#A5A5A5"/><text fill="#FFFFFF" font-family="Calibri,Calibri_MSFontService,sans-serif" font-weight="400" font-size="24" transform="translate(81.4972 237)">Penalty <tspan x="-11.16" y="29">Functions</tspan></text><path d="M121.722 338.618 121.034 297.509 122.367 297.487 123.055 338.596ZM115.057 298.943 121.5 285.5 128.389 298.72Z"/><path d="M191.502 243.833 248.057 243.992 248.053 245.326 191.498 245.167ZM246.741 237.989 260.055 244.693 246.703 251.322Z"/><path d="M119.167 146.5 119.167 191.443 117.833 191.443 117.833 146.5ZM125.167 190.109 118.5 203.443 111.833 190.109Z"/><path d="M0-0.666667 1.33333-0.666667 1.33333 0.666667 0 0.666667ZM2.66667-0.666667 4-0.666667 4 0.666667 2.66667 0.666667ZM5.33333-0.666667 6.66667-0.666667 6.66667 0.666667 5.33333 0.666667ZM8-0.666667 9.33333-0.666667 9.33333 0.666667 8 0.666667ZM10.6667-0.666667 12-0.666667 12 0.666667 10.6667 0.666667ZM13.3333-0.666667 14.6667-0.666667 14.6667 0.666667 13.3333 0.666667ZM16-0.666667 17.3333-0.666667 17.3333 0.666667 16 0.666667ZM18.6667-0.666667 20-0.666667 20 0.666667 18.6667 0.666667ZM21.3333-0.666667 22.6667-0.666667 22.6667 0.666667 21.3333 0.666667ZM24-0.666667 25.3333-0.666667 25.3333 0.666667 24 0.666667ZM26.6667-0.666667 28-0.666667 28 0.666667 26.6667 0.666667ZM29.3333-0.666667 30.6667-0.666667 30.6667 0.666667 29.3333 0.666667ZM32-0.666667 33.3333-0.666667 33.3333 0.666667 32 0.666667ZM34.6667-0.666667 36-0.666667 36 0.666667 34.6667 0.666667ZM37.3333-0.666667 38.6667-0.666667 38.6667 0.666667 37.3333 0.666667ZM40-0.666667 41.3333-0.666667 41.3333 0.666667 40 0.666667ZM42.6667-0.666667 44-0.666667 44 0.666667 42.6667 0.666667ZM45.3333-0.666667 46.6667-0.666667 46.6667 0.666667 45.3333 0.666667ZM48-0.666667 49.3333-0.666667 49.3333 0.666667 48 0.666667ZM50.6667-0.666667 52-0.666667 52 0.666667 50.6667 0.666667ZM53.3333-0.666667 54.6667-0.666667 54.6667 0.666667 53.3333 0.666667ZM56-0.666667 57.3333-0.666667 57.3333 0.666667 56 0.666667ZM58.6667-0.666667 60-0.666667 60 0.666667 58.6667 0.666667ZM61.3333-0.666667 62.6667-0.666667 62.6667 0.666667 61.3333 0.666667ZM64-0.666667 65.3333-0.666667 65.3333 0.666667 64 0.666667ZM66.6667-0.666667 68-0.666667 68 0.666667 66.6667 0.666667ZM69.3333-0.666667 70.6667-0.666667 70.6667 0.666667 69.3333 0.666667ZM72-0.666667 73.3333-0.666667 73.3333 0.666667 72 0.666667ZM74.6667-0.666667 76-0.666667 76 0.666667 74.6667 0.666667ZM77.3333-0.666667 78.6667-0.666667 78.6667 0.666667 77.3333 0.666667ZM80-0.666667 81.3333-0.666667 81.3333 0.666667 80 0.666667ZM82.6667-0.666667 84-0.666667 84 0.666667 82.6667 0.666667ZM85.3333-0.666667 86.6667-0.666667 86.6667 0.666667 85.3333 0.666667ZM88-0.666667 89.3333-0.666667 89.3333 0.666667 88 0.666667ZM90.6667-0.666667 92-0.666667 92 0.666667 90.6667 0.666667ZM93.3333-0.666667 94.6667-0.666667 94.6667 0.666667 93.3333 0.666667ZM96-0.666667 97.3333-0.666667 97.3333 0.666667 96 0.666667ZM98.6667-0.666667 100-0.666667 100 0.666667 98.6667 0.666667ZM101.333-0.666667 102.667-0.666667 102.667 0.666667 101.333 0.666667ZM104-0.666667 105.333-0.666667 105.333 0.666667 104 0.666667ZM106.667-0.666667 108-0.666667 108 0.666667 106.667 0.666667ZM109.333-0.666667 110.667-0.666667 110.667 0.666667 109.333 0.666667ZM112-0.666667 113.333-0.666667 113.333 0.666667 112 0.666667ZM114.667-0.666667 116-0.666667 116 0.666667 114.667 0.666667ZM117.333-0.666667 118.667-0.666667 118.667 0.666667 117.333 0.666667ZM120-0.666667 121.333-0.666667 121.333 0.666667 120 0.666667ZM122.667-0.666667 124-0.666667 124 0.666667 122.667 0.666667ZM125.333-0.666667 126.667-0.666667 126.667 0.666667 125.333 0.666667ZM128-0.666667 129.333-0.666667 129.333 0.666667 128 0.666667ZM130.667-0.666667 132-0.666667 132 0.666667 130.667 0.666667ZM133.333-0.666667 134.667-0.666667 134.667 0.666667 133.333 0.666667ZM136-0.666667 137.333-0.666667 137.333 0.666667 136 0.666667ZM138.667-0.666667 140-0.666667 140 0.666667 138.667 0.666667ZM141.333-0.666667 142.667-0.666667 142.667 0.666667 141.333 0.666667ZM144-0.666667 145.333-0.666667 145.333 0.666667 144 0.666667ZM146.667-0.666667 148-0.666667 148 0.666667 146.667 0.666667ZM149.333-0.666667 150.667-0.666667 150.667 0.666667 149.333 0.666667ZM152-0.666667 153.333-0.666667 153.333 0.666667 152 0.666667ZM154.667-0.666667 156-0.666667 156 0.666667 154.667 0.666667ZM157.333-0.666667 158.667-0.666667 158.667 0.666667 157.333 0.666667ZM160-0.666667 161.333-0.666667 161.333 0.666667 160 0.666667ZM162.667-0.666667 164-0.666667 164 0.666667 162.667 0.666667ZM165.333-0.666667 166.667-0.666667 166.667 0.666667 165.333 0.666667ZM168-0.666667 169.333-0.666667 169.333 0.666667 168 0.666667ZM170.667-0.666667 172-0.666667 172 0.666667 170.667 0.666667ZM173.333-0.666667 174.667-0.666667 174.667 0.666667 173.333 0.666667ZM176-0.666667 177.333-0.666667 177.333 0.666667 176 0.666667ZM178.667-0.666667 180-0.666667 180 0.666667 178.667 0.666667ZM181.333-0.666667 182.667-0.666667 182.667 0.666667 181.333 0.666667ZM184-0.666667 185.333-0.666667 185.333 0.666667 184 0.666667ZM186.667-0.666667 188-0.666667 188 0.666667 186.667 0.666667ZM189.333-0.666667 190.667-0.666667 190.667 0.666667 189.333 0.666667ZM192-0.666667 193.333-0.666667 193.333 0.666667 192 0.666667ZM194.667-0.666667 196-0.666667 196 0.666667 194.667 0.666667ZM197.333-0.666667 198.667-0.666667 198.667 0.666667 197.333 0.666667ZM200-0.666667 201.333-0.666667 201.333 0.666667 200 0.666667ZM202.667-0.666667 204-0.666667 204 0.666667 202.667 0.666667ZM205.333-0.666667 206.667-0.666667 206.667 0.666667 205.333 0.666667ZM208-0.666667 209.333-0.666667 209.333 0.666667 208 0.666667ZM210.667-0.666667 212-0.666667 212 0.666667 210.667 0.666667ZM213.333-0.666667 214.667-0.666667 214.667 0.666667 213.333 0.666667ZM216-0.666667 217.333-0.666667 217.333 0.666667 216 0.666667ZM218.667-0.666667 220-0.666667 220 0.666667 218.667 0.666667ZM221.333-0.666667 222.667-0.666667 222.667 0.666667 221.333 0.666667ZM224-0.666667 225.333-0.666667 225.333 0.666667 224 0.666667ZM226.667-0.666667 228-0.666667 228 0.666667 226.667 0.666667ZM229.333-0.666667 230.667-0.666667 230.667 0.666667 229.333 0.666667ZM232-0.666667 233.333-0.666667 233.333 0.666667 232 0.666667ZM234.667-0.666667 236-0.666667 236 0.666667 234.667 0.666667ZM237.333-0.666667 238.667-0.666667 238.667 0.666667 237.333 0.666667ZM240-0.666667 241.333-0.666667 241.333 0.666667 240 0.666667ZM242.667-0.666667 244-0.666667 244 0.666667 242.667 0.666667ZM245.333-0.666667 246.667-0.666667 246.667 0.666667 245.333 0.666667ZM248-0.666667 249.333-0.666667 249.333 0.666667 248 0.666667ZM250.667-0.666667 252-0.666667 252 0.666667 250.667 0.666667ZM253.333-0.666667 254.667-0.666667 254.667 0.666667 253.333 0.666667ZM256-0.666667 257.333-0.666667 257.333 0.666667 256 0.666667ZM258.667-0.666667 260-0.666667 260 0.666667 258.667 0.666667ZM261.333-0.666667 262.667-0.666667 262.667 0.666667 261.333 0.666667ZM264-0.666667 265.333-0.666667 265.333 0.666667 264 0.666667ZM266.667-0.666667 268-0.666667 268 0.666667 266.667 0.666667ZM269.333-0.666667 270.667-0.666667 270.667 0.666667 269.333 0.666667ZM272-0.666667 273.333-0.666667 273.333 0.666667 272 0.666667ZM274.667-0.666667 276-0.666667 276 0.666667 274.667 0.666667ZM277.333-0.666667 278.667-0.666667 278.667 0.666667 277.333 0.666667ZM280-0.666667 281.333-0.666667 281.333 0.666667 280 0.666667ZM282.667-0.666667 284-0.666667 284 0.666667 282.667 0.666667ZM285.333-0.666667 286.667-0.666667 286.667 0.666667 285.333 0.666667ZM288-0.666667 289.333-0.666667 289.333 0.666667 288 0.666667ZM290.667-0.666667 292-0.666667 292 0.666667 290.667 0.666667ZM293.333-0.666667 294.667-0.666667 294.667 0.666667 293.333 0.666667ZM296-0.666667 297.333-0.666667 297.333 0.666667 296 0.666667ZM298.667-0.666667 300-0.666667 300 0.666667 298.667 0.666667ZM301.333-0.666667 302.667-0.666667 302.667 0.666667 301.333 0.666667ZM304-0.666667 305.333-0.666667 305.333 0.666667 304 0.666667ZM306.667-0.666667 308-0.666667 308 0.666667 306.667 0.666667ZM309.333-0.666667 310.667-0.666667 310.667 0.666667 309.333 0.666667ZM312-0.666667 313.333-0.666667 313.333 0.666667 312 0.666667ZM314.667-0.666667 316-0.666667 316 0.666667 314.667 0.666667ZM317.333-0.666667 318.667-0.666667 318.667 0.666667 317.333 0.666667ZM320-0.666667 321.333-0.666667 321.333 0.666667 320 0.666667ZM322.667-0.666667 324-0.666667 324 0.666667 322.667 0.666667ZM325.333-0.666667 326.667-0.666667 326.667 0.666667 325.333 0.666667ZM328-0.666667 329.333-0.666667 329.333 0.666667 328 0.666667ZM330.667-0.666667 332-0.666667 332 0.666667 330.667 0.666667ZM333.333-0.666667 334.667-0.666667 334.667 0.666667 333.333 0.666667ZM336-0.666667 337.333-0.666667 337.333 0.666667 336 0.666667ZM338.667-0.666667 340-0.666667 340 0.666667 338.667 0.666667ZM341.333-0.666667 342.667-0.666667 342.667 0.666667 341.333 0.666667ZM344-0.666667 345.333-0.666667 345.333 0.666667 344 0.666667ZM346.667-0.666667 348-0.666667 348 0.666667 346.667 0.666667ZM349.333-0.666667 350.667-0.666667 350.667 0.666667 349.333 0.666667ZM352-0.666667 353.333-0.666667 353.333 0.666667 352 0.666667ZM354.667-0.666667 356-0.666667 356 0.666667 354.667 0.666667ZM357.333-0.666667 358.667-0.666667 358.667 0.666667 357.333 0.666667ZM360-0.666667 361.333-0.666667 361.333 0.666667 360 0.666667ZM362.667-0.666667 364-0.666667 364 0.666667 362.667 0.666667ZM365.232 0.768399 365.232 2.10173 363.898 2.10173 363.898 0.768399ZM365.232 3.43507 365.232 4.7684 363.898 4.7684 363.898 3.43507ZM365.232 6.10173 365.232 7.43507 363.898 7.43507 363.898 6.10173ZM365.232 8.7684 365.232 10.1017 363.898 10.1017 363.898 8.7684ZM365.232 11.4351 365.232 12.7684 363.898 12.7684 363.898 11.4351ZM365.232 14.1017 365.232 15.4351 363.898 15.4351 363.898 14.1017ZM365.232 16.7684 365.232 18.1017 363.898 18.1017 363.898 16.7684ZM365.232 19.4351 365.232 20.7684 363.898 20.7684 363.898 19.4351ZM365.232 22.1017 365.232 23.4351 363.898 23.4351 363.898 22.1017ZM365.232 24.7684 365.232 26.1017 363.898 26.1017 363.898 24.7684ZM365.232 27.4351 365.232 28.7684 363.898 28.7684 363.898 27.4351ZM365.232 30.1017 365.232 31.4351 363.898 31.4351 363.898 30.1017ZM365.232 32.7684 365.232 34.1017 363.898 34.1017 363.898 32.7684ZM365.232 35.4351 365.232 36.7684 363.898 36.7684 363.898 35.4351ZM365.232 38.1017 365.232 39.4351 363.898 39.4351 363.898 38.1017ZM365.232 40.7684 365.232 42.1017 363.898 42.1017 363.898 40.7684ZM365.232 43.4351 365.232 44.7684 363.898 44.7684 363.898 43.4351ZM365.232 46.1017 365.232 47.4351 363.898 47.4351 363.898 46.1017ZM365.232 48.7684 365.232 50.1017 363.898 50.1017 363.898 48.7684ZM365.232 51.4351 365.232 52.7684 363.898 52.7684 363.898 51.4351ZM365.232 54.1017 365.232 55.4351 363.898 55.4351 363.898 54.1017ZM365.232 56.7684 365.232 58.1017 363.898 58.1017 363.898 56.7684ZM365.232 59.4351 365.232 60.7684 363.898 60.7684 363.898 59.4351ZM365.232 62.1017 365.232 63.4351 363.898 63.4351 363.898 62.1017ZM365.232 64.7684 365.232 66.1017 363.898 66.1017 363.898 64.7684ZM365.232 67.4351 365.232 68.7684 363.898 68.7684 363.898 67.4351ZM365.232 70.1017 365.232 71.4351 363.898 71.4351 363.898 70.1017ZM365.232 72.7684 365.232 74.1017 363.898 74.1017 363.898 72.7684ZM365.232 75.4351 365.232 76.7684 363.898 76.7684 363.898 75.4351ZM365.232 78.1017 365.232 79.4351 363.898 79.4351 363.898 78.1017ZM365.232 80.7684 365.232 82.1017 363.898 82.1017 363.898 80.7684ZM365.232 83.4351 365.232 84.7684 363.898 84.7684 363.898 83.4351ZM365.232 86.1017 365.232 87.4351 363.898 87.4351 363.898 86.1017ZM365.232 88.7684 365.232 90.1017 363.898 90.1017 363.898 88.7684ZM365.232 91.4351 365.232 92.7684 363.898 92.7684 363.898 91.4351ZM365.232 94.1017 365.232 95.4351 363.898 95.4351 363.898 94.1017ZM365.232 96.7684 365.232 98.1017 363.898 98.1017 363.898 96.7684ZM365.232 99.4351 365.232 100.768 363.898 100.768 363.898 99.4351ZM365.232 102.102 365.232 103.435 363.898 103.435 363.898 102.102ZM365.232 104.768 365.232 106.102 363.898 106.102 363.898 104.768ZM365.232 107.435 365.232 108.768 363.898 108.768 363.898 107.435ZM365.232 110.102 365.232 111.435 363.898 111.435 363.898 110.102ZM365.232 112.768 365.232 114.102 363.898 114.102 363.898 112.768ZM365.232 115.435 365.232 116.768 363.898 116.768 363.898 115.435ZM365.232 118.102 365.232 119.435 363.898 119.435 363.898 118.102ZM365.232 120.768 365.232 122.102 363.898 122.102 363.898 120.768ZM365.232 123.435 365.232 124.768 363.898 124.768 363.898 123.435ZM365.232 126.102 365.232 127.435 363.898 127.435 363.898 126.102ZM365.232 128.768 365.232 130.102 363.898 130.102 363.898 128.768ZM365.232 131.435 365.232 132.768 363.898 132.768 363.898 131.435ZM365.232 134.102 365.232 135.435 363.898 135.435 363.898 134.102ZM365.232 136.768 365.232 138.102 363.898 138.102 363.898 136.768ZM365.232 139.435 365.232 140.768 363.898 140.768 363.898 139.435ZM365.232 142.102 365.232 143.435 363.898 143.435 363.898 142.102ZM365.232 144.768 365.232 146.102 363.898 146.102 363.898 144.768ZM365.232 147.435 365.232 148.768 363.898 148.768 363.898 147.435ZM365.232 150.102 365.232 151.435 363.898 151.435 363.898 150.102ZM365.232 152.768 365.232 154.102 363.898 154.102 363.898 152.768ZM365.232 155.435 365.232 156.768 363.898 156.768 363.898 155.435ZM365.232 158.102 365.232 159.435 363.898 159.435 363.898 158.102ZM365.232 160.768 365.232 161.027 363.898 161.027 363.898 160.768ZM371.232 159.694 364.565 173.027 357.898 159.694Z" transform="matrix(-4.37114e-08 -1 -1 4.37114e-08 608.527 609.065)"/></g></svg>